<svg xmlns="http://www.w3.org/2000/svg" xmlns:xlink="http://www.w3.org/1999/xlink" viewBox="0,0,256,256" width="100px" height="100px" fill-rule="nonzero"><g fill="none" fill-rule="nonzero" stroke="none" stroke-width="1" stroke-linecap="butt" stroke-linejoin="miter" stroke-miterlimit="10" stroke-dasharray="" stroke-dashoffset="0" font-family="none" font-weight="none" font-size="none" text-anchor="none" style="mix-blend-mode: normal"><g transform="scale(2.56,2.56)"><path d="M13,27c-1.10457,0 -2,0.89543 -2,2c0,1.10457 0.89543,2 2,2c1.10457,0 2,-0.89543 2,-2c0,-1.10457 -0.89543,-2 -2,-2z" fill="#ee3e54"></path><path d="M77,12c-0.55228,0 -1,0.44772 -1,1c0,0.55228 0.44772,1 1,1c0.55228,0 1,-0.44772 1,-1c0,-0.55228 -0.44772,-1 -1,-1z" fill="#f1bc19"></path><path d="M50,13c-20.43454,0 -37,16.56546 -37,37c0,20.43454 16.56546,37 37,37c20.43454,0 37,-16.56546 37,-37c0,-20.43454 -16.56546,-37 -37,-37z" fill="#fce0a2"></path><path d="M83,11c-2.20914,0 -4,1.79086 -4,4c0,2.20914 1.79086,4 4,4c2.20914,0 4,-1.79086 4,-4c0,-2.20914 -1.79086,-4 -4,-4z" fill="#f1bc19"></path><path d="M87,22c-1.10457,0 -2,0.89543 -2,2c0,1.10457 0.89543,2 2,2c1.10457,0 2,-0.89543 2,-2c0,-1.10457 -0.89543,-2 -2,-2z" fill="#ee3e54"></path><path d="M81,74c-1.10457,0 -2,0.89543 -2,2c0,1.10457 0.89543,2 2,2c1.10457,0 2,-0.89543 2,-2c0,-1.10457 -0.89543,-2 -2,-2zM15,59c-2.20914,0 -4,1.79086 -4,4c0,2.20914 1.79086,4 4,4c2.20914,0 4,-1.79086 4,-4c0,-2.20914 -1.79086,-4 -4,-4z" fill="#fbcd59"></path><path d="M25,85c-1.10457,0 -2,0.89543 -2,2c0,1.10457 0.89543,2 2,2c1.10457,0 2,-0.89543 2,-2c0,-1.10457 -0.89543,-2 -2,-2z" fill="#ee3e54"></path><path d="M18.5,51c-1.38071,0 -2.5,1.11929 -2.5,2.5c0,1.38071 1.11929,2.5 2.5,2.5c1.38071,0 2.5,-1.11929 2.5,-2.5c0,-1.38071 -1.11929,-2.5 -2.5,-2.5z" fill="#ffffff"></path><path d="M21,66c-0.55228,0 -1,0.44772 -1,1c0,0.55228 0.44772,1 1,1c0.55228,0 1,-0.44772 1,-1c0,-0.55228 -0.44772,-1 -1,-1z" fill="#f1bc19"></path><path d="M80,33c-0.55228,0 -1,0.44772 -1,1c0,0.55228 0.44772,1 1,1c0.55228,0 1,-0.44772 1,-1c0,-0.55228 -0.44772,-1 -1,-1z" fill="#ffffff"></path><path d="M35,72.3c-4,0 -7.3,-3.3 -7.3,-7.3v-30c0,-4 3.3,-7.3 7.3,-7.3h30c4,0 7.3,3.3 7.3,7.3v30c0,4 -3.3,7.3 -7.3,7.3z" fill="#4985c1"></path><path d="M65,28.4c3.6,0 6.6,3 6.6,6.6v30c0,3.6 -3,6.6 -6.6,6.6h-30c-3.6,0 -6.6,-3 -6.6,-6.6v-30c0,-3.6 3,-6.6 6.6,-6.6h30M65,27h-30c-4.4,0 -8,3.6 -8,8v30c0,4.4 3.6,8 8,8h30c4.4,0 8,-3.6 8,-8v-30c0,-4.4 -3.6,-8 -8,-8z" fill="#472b29"></path><path d="M68.5,47.9v1.8v14.3c0,2.5 -2,4.5 -4.5,4.5h-28c-2.5,0 -4.5,-2 -4.5,-4.5v-28c0,-2.5 2,-4.5 4.5,-4.5h25.4h2.6c2.5,0 4.5,2 4.5,4.5v3.4v2v1v1.1v2.9v1.5" fill="#cce6ff"></path><path d="M68.5,47.4c-0.3,0 -0.5,-0.2 -0.5,-0.5v-3.9c0,-0.3 0.2,-0.5 0.5,-0.5c0.3,0 0.5,0.2 0.5,0.5v3.9c0,0.3 -0.2,0.5 -0.5,0.5zM68.5,40.5c-0.3,0 -0.5,-0.2 -0.5,-0.5v-2c0,-0.3 0.2,-0.5 0.5,-0.5c0.3,0 0.5,0.2 0.5,0.5v2c0,0.3 -0.2,0.5 -0.5,0.5z" fill="#472b29"></path><path d="M64,69h-28c-2.8,0 -5,-2.2 -5,-5v-28c0,-2.8 2.2,-5 5,-5h25.4c0.3,0 0.5,0.2 0.5,0.5c0,0.3 -0.2,0.5 -0.5,0.5h-25.4c-2.2,0 -4,1.8 -4,4v28c0,2.2 1.8,4 4,4h28c2.2,0 4,-1.8 4,-4v-14.4c0,-0.3 0.2,-0.5 0.5,-0.5c0.3,0 0.5,0.2 0.5,0.5v14.4c0,2.8 -2.2,5 -5,5z" fill="#472b29"></path><path d="M46.5,43.4c0,0.6 0,3.1 0,3.1h-2.1v3.6h2.1v11.4h5v-11.4h2.9c0,0 0.3,-1.7 0.4,-3.6c-0.4,0 -4.1,0 -4.1,0c0,0 0,-2.2 0,-2.6c0,-0.4 0.5,-0.9 1,-0.9c0.5,0 2.2,0 3.3,0c0,-0.6 0,-2.5 0,-4.3c-1.4,0 -2.9,0 -3.6,0c-5,-0.1 -4.9,4.1 -4.9,4.7z" fill="#4985c1"></path><path d="M51.5,62h-5c-0.3,0 -0.5,-0.2 -0.5,-0.5v-10.9h-1.6c-0.3,0 -0.5,-0.2 -0.5,-0.5v-3.6c0,-0.3 0.2,-0.5 0.5,-0.5h1.6v-2.6h0.5h-0.5c0,-1.6 0.5,-2.9 1.4,-3.8c0.9,-1 2.3,-1.4 4.1,-1.4h3.6c0.3,0 0.5,0.2 0.5,0.5v4.3c0,0.3 -0.2,0.5 -0.5,0.5h-3.3c-0.2,0 -0.5,0.3 -0.5,0.4v2.1h3.6c0.1,0 0.3,0.1 0.4,0.2c0.1,0.1 0.1,0.2 0.1,0.4c-0.1,1.9 -0.4,3.5 -0.4,3.6c0,0.2 -0.2,0.4 -0.5,0.4h-2.5v10.9c0,0.3 -0.2,0.5 -0.5,0.5zM47,61h4v-10.9c0,-0.3 0.2,-0.5 0.5,-0.5h2.5c0.1,-0.5 0.2,-1.5 0.3,-2.6h-3.5c-0.3,0 -0.5,-0.2 -0.5,-0.5v-2.6c0,-0.7 0.8,-1.4 1.5,-1.4h2.8v-3.3h-3.1c-1.5,0 -2.7,0.4 -3.4,1.1c-0.7,0.7 -1.1,1.7 -1.1,3v0v3.1c0,0.3 -0.2,0.5 -0.5,0.5h-1.6v2.6h1.6c0.3,0 0.5,0.2 0.5,0.5z" fill="#472b29"></path></g></g></svg>